<svg xmlns="http://www.w3.org/2000/svg" height="381.005" width="742" xml:space="preserve" id="svg2" version="1.1"><g transform="matrix(1.33333 0 0 -1.33333 0 381.004)" id="g10"><g transform="scale(.1)" id="g12" fill-opacity="1" fill-rule="nonzero" stroke="none"><path id="path14" d="M1393.36 1779.02L41.813 1899.03 0 1429.1l422.141-37.45L321.879 262.852l509.601-45.133L931.801 1346.38l419.749-37.35 41.81 469.99" fill="#f9c908"/><path id="path16" d="M4198.3 1910.38l-577.38-54.24-169.12-466.6-255.45 426.69-575.02-54.12 632.99-1017.551 49.81-530.297 509.29 47.898-49.64 527.918L4198.3 1910.38" fill="#f9c908"/><path id="path18" d="M5553.96 842.762c-67.8 379.018-343.02 435.038-765.15 402.728-69.53-5.21-150.91-.99-165.1 78.06-11.62 65.48 34.66 109.06 86.52 118.26 23.73 4.23 100.81 7.96 131.61-112.07l556.05 99.36c-90.25 342.47-366.67 506.57-742.54 439.41-390.48-69.71-622.04-348.58-563.23-677.99 34.32-191.93 189.75-347.918 386.6-388.231 116.91-22.898 191.61-23.469 304.84-24.367 13.9-.113 28.46-.211 43.79-.391 93.24.547 150.04-29.172 159.71-83.5 8.25-45.98-23.04-102.203-82.68-112.961-61.89-11.101-110.33 30.711-131.57 112.078l-579.8-103.597c39.71-173.352 142.98-305.473 299.72-382.672 144.11-71.02 325.35-91.859 510.48-58.859 186.11 33.25 337.07 111.648 436.46 226.679 107.31 124.172 146.76 286.039 114.29 468.063" fill="#f9c908"/><path id="path20" d="M166.191 2372.68c0 49 31.582 93.7 89.321 93.7 59.922 0 87.148-40.34 87.148-91.53v-313.74h163.414v312.66c0 47.91 31.602 92.61 90.449 92.61 58.821 0 86.051-40.34 86.051-91.53v-313.74h160.168v350.78c0 147.08-98.07 207.01-200.476 207.01-72.985 0-125.262-23.97-167.774-85-27.226 53.38-82.769 85-160.144 85-58.836 0-128.559-30.53-155.793-78.47v62.11H.594v-541.43H166.19v311.57" fill="#4fb5ea"/><path id="path22" d="M1688.63 2166.74c-56.65 0-82.8 35.97-84.94 73.03l-140.59-25.02c4.4-59.93 58.85-169.96 228.78-169.96 144.91 0 215.72 90.41 215.72 182.99 0 79.54-54.47 147.06-166.68 169.96l-71.89 14.15c-24.01 4.34-42.52 17.47-42.52 40.28 0 28.38 27.26 46.85 58.84 46.85 50.13 0 72.98-30.47 77.36-66.43l137.25 25.05c-5.42 63.2-59.91 161.26-216.8 161.26-120.92 0-208.05-80.65-208.05-179.78 0-76.27 45.72-141.62 161.21-166.67l62.1-14.16c40.33-8.72 53.4-25.03 53.4-44.67 0-23.95-20.72-46.88-63.19-46.88" fill="#4fb5ea"/><path id="path24" d="M2012.21 2225.61c0-107.87 68.63-174.32 180.83-174.32 52.29 0 79.55 11.97 86.08 15.23v137.27c-9.81-2.13-26.16-5.43-43.56-5.43-35.96 0-59.93 11.97-59.93 56.64v202.64h105.68v144.9h-105.68v157.93h-148.15v-69.67c0-50.11-27.28-88.26-83.92-88.26h-27.22v-144.9h95.87v-232.03" fill="#4fb5ea"/><path id="path26" d="M2449.11 2396.63c3.25 40.33 38.09 91.51 107.81 91.51 78.45 0 106.77-50.12 108.99-91.51zm376.9-55.56c0 174.34-103.51 277.83-271.25 277.83-140.56 0-270.19-111.1-270.19-285.45 0-181.95 132.93-288.66 282.16-288.66 137.24 0 223.33 78.4 249.48 172.1l-138.36 39.22c-15.22-42.49-49.03-70.81-108.96-70.81-64.25 0-119.78 43.56-123.06 104.59h376.88c1.16 3.27 3.3 28.32 3.3 51.18" fill="#4fb5ea"/><path id="path28" d="M3399.77 2372.68c0 49 31.57 93.7 89.28 93.7 59.91 0 87.16-40.34 87.16-91.53v-313.74h163.43v312.66c0 47.91 31.62 92.61 90.42 92.61 58.83 0 86.05-40.34 86.05-91.53v-313.74h160.15v350.78c0 147.08-98.03 207.01-200.46 207.01-72.96 0-125.23-23.97-167.76-85-27.21 53.38-82.78 85-160.14 85-58.85 0-128.56-30.53-155.78-78.47v62.11h-157.96v-541.43h165.61v311.57" fill="#4fb5ea"/><path id="path30" d="M4117.74 2061.11h165.55v541.42h-165.55v-541.42" fill="#4fb5ea"/><path id="path32" d="M4493.55 2371.59c0 54.45 34.89 94.79 89.37 94.79 59.92 0 88.23-40.34 88.23-93.7v-311.57h165.59V2401c0 118.73-61 215.7-197.22 215.7-55.52 0-121.97-25.05-151.41-76.27v62.11h-160.16v-541.43h165.6v310.48" fill="#4fb5ea"/><path id="path34" d="M4199.26 2632.74c63.16 0 113.61 50.52 113.61 112.4 0 61.89-50.45 112.39-113.61 112.39-60.65 0-111.15-50.5-111.15-112.39 0-61.88 50.5-112.4 111.15-112.4" fill="#4fb5ea"/><path id="path36" d="M3017.74 2297.93c0 107.96 60 147.23 126.54 147.23 16.34 0 33.79-1.11 52.34-5.47v163.61c-10.91 3.29-27.27 5.45-43.64 5.45-43.61 0-112.35-17.45-140.68-78.54v73.09h-160.32v-542.04h165.76v236.67" fill="#4fb5ea"/><path id="path38" d="M1155.45 2454.51c67.84 0 122.87-54.99 122.87-122.87 0-67.85-55.03-122.85-122.87-122.85-67.88 0-122.87 55-122.87 122.85 0 67.88 54.99 122.87 122.87 122.87zm-20.18-409.53c67.59 0 122.08 32.7 146.05 85.02v-5.45c0-22.89 2.17-52.32 4.33-64.31h159.17c-1.1 11.99-4.36 46.87-4.36 97.01v444.7h-160.22v-62.13c-10.88 25.08-53.43 78.47-150.42 78.47-160.246 0-263.785-124.27-263.785-285.58 0-166.73 110.098-287.73 269.235-287.73" fill="#4fb5ea"/><path id="path40" d="M5162.2 2454.51c67.88 0 122.85-54.99 122.85-122.87 0-67.85-54.97-122.85-122.85-122.85-67.86 0-122.87 55-122.87 122.85 0 67.88 55.01 122.87 122.87 122.87zm-20.18-409.53c67.6 0 122.07 32.7 146.07 85.02v-5.45c0-22.89 2.14-52.32 4.32-64.31h159.15c-1.09 11.99-4.35 46.87-4.35 97.01v692.59h-160.22v-310.02c-10.89 25.08-53.42 78.47-150.44 78.47-160.2 0-263.75-124.27-263.75-285.58 0-166.73 110.11-287.73 269.22-287.73" fill="#4fb5ea"/><path id="path42" d="M2129.15 581.09c-138.48 0-250.67 112.23-250.67 250.648 0 138.473 112.19 250.642 250.67 250.642 138.46 0 250.6-112.169 250.6-250.642 0-138.418-112.14-250.648-250.6-250.648zm-133.96 1060.88c-449.99-69.92-759.12-492.93-689.16-942.931 69.99-450.008 492.97-759.2 942.99-689.14 449.97 69.91 759.13 492.929 689.16 942.941-69.94 449.96-492.94 759.12-942.99 689.13" fill="#f9c908"/><path id="path44" d="M5383.71 1824.97c0-9.47-5.91-14.43-17.03-14.43h-12.62v28.84h12.62c10.77 0 17.03-3.64 17.03-13.95zm21.15.88v.43c0 20.24-14.9 29.7-37.72 29.7h-34.6v-98.37h21.52v38.13h10.38l23.86-38.13h22.36l-25.99 41.71c11.57 3.67 20.19 11.63 20.19 26.53" fill="#f9c908"/><path id="path46" d="M5366.68 1722.57c-45.78 0-81.83 33.23-81.83 82.6 0 49 34.19 83.57 81.83 83.57s81.78-34.13 81.78-83.06c0-48.95-35.45-83.11-81.78-83.11zm0 182.33c-55.77 0-99.77-44.46-99.77-99.73 0-56.08 44.52-98.77 99.77-98.77 55.7 0 99.72 43.15 99.72 99.28 0 55.24-43.2 99.22-99.72 99.22" fill="#f9c908"/></g></g></svg>