<svg xmlns="http://www.w3.org/2000/svg" width="47.03" height="34.91"><path d="M42.39 8.53a4.6 4.6 0 00-4.64 4.53 4.438 4.438 0 001.56 3.37l-5.86 2.06-8.34-9.69a4.526 4.526 0 003.09-4.25 4.646 4.646 0 00-9.29 0 4.543 4.543 0 003.05 4.24l-8.35 9.7-5.86-2.06a4.472 4.472 0 001.56-3.37 4.646 4.646 0 10-5.75 4.4v12.29a1.027 1.027 0 00.05.24 1.6 1.6 0 00-.05.39c0 4.41 17.92 4.54 19.96 4.54s19.97-.13 19.97-4.54a1.6 1.6 0 00-.05-.39 1.027 1.027 0 00.05-.24V17.46a4.52 4.52 0 00-1.1-8.93zM21.17 4.55a2.386 2.386 0 112.39 2.33 2.359 2.359 0 01-2.39-2.33zm-7.59 16.27a1.136 1.136 0 001.25-.33l8.7-10.1 8.69 10.1a1.136 1.136 0 001.25.33l7.76-2.72v9.94c-4.89-2.13-16.11-2.2-17.71-2.2s-12.82.07-17.7 2.2V18.1zm9.95 11.89c-8.71 0-14.25-1.01-16.56-1.86a5.313 5.313 0 01-1-.47c.73-.52 3.06-1.24 6.97-1.73a92.23 92.23 0 0121.18 0c3.9.49 6.24 1.21 6.96 1.73a4.879 4.879 0 01-.99.47c-2.31.85-7.85 1.86-16.56 1.86zM2.28 13.06a2.386 2.386 0 112.39 2.33 2.357 2.357 0 01-2.39-2.33zm40.11 2.33a2.326 2.326 0 112.39-2.33 2.356 2.356 0 01-2.39 2.33z"/></svg>