<svg xmlns="http://www.w3.org/2000/svg" width="40" height="40"><path d="M36.576 16.992l3.411 2.964-3.411 2.968 2.208 3.966-4.209 1.601.732 4.494-4.494.045-.821 4.481-4.239-1.513-2.288 3.921-3.471-2.898-3.471 2.898-2.289-3.921-4.24 1.512-.82-4.481-4.494-.044.732-4.498-4.209-1.598 2.21-3.966-3.411-2.967 3.411-2.967-2.21-3.965 4.21-1.6-.733-4.495 4.494-.044.822-4.48 4.239 1.511 2.289-3.92 3.471 2.897 3.471-2.897 2.288 3.921 4.241-1.512.82 4.481 4.494.045-.732 4.494 4.208 1.6-2.209 3.967zm-2.664-3.769l-1.459-.554.254-1.559.372-2.282-2.282-.023-1.56-.017-.285-1.554-.416-2.274-2.152.767-1.468.523-.793-1.357-1.162-1.989-1.762 1.47-1.205 1.005-1.205-1.005-1.762-1.47-1.16 1.988-.793 1.357-1.468-.523-2.151-.767-.417 2.274-.285 1.554-1.56.017-2.281.022.371 2.283.254 1.558-1.459.555-2.134.811 1.12 2.011.766 1.375-1.182 1.028-1.735 1.508 1.734 1.507 1.183 1.029-.767 1.375-1.12 2.011 2.133.809 1.459.556-.254 1.559-.372 2.284 2.282.022 1.56.017.286 1.555.416 2.273 2.152-.768 1.468-.522.793 1.357 1.161 1.99 1.762-1.471 1.205-1.006 1.206 1.006 1.761 1.471 1.161-1.99.792-1.357 1.468.523 2.151.768.417-2.272.285-1.556 1.561-.016 2.281-.022-.371-2.282-.254-1.559 1.459-.555 2.134-.813-1.121-2.011-.766-1.375 1.183-1.028 1.734-1.51-1.734-1.504-1.182-1.029.766-1.376 1.12-2.011-2.133-.811zm-9.247 14.146c-1.782 0-3.327-1.45-3.347-4.353 0-2.926 1.565-4.554 3.458-4.554 2.006 0 3.305 1.563 3.304 4.329 0 3.06-1.585 4.578-3.415 4.578zm.046-7.723c-1.211 0-1.873 1.451-1.873 3.282-.022 1.852.683 3.258 1.873 3.258 1.277 0 1.849-1.385 1.849-3.303 0-1.765-.507-3.237-1.849-3.237zm-9.516 7.684l8.414-14.72h1.233l-8.415 14.72h-1.232zm.132-5.968c-1.784 0-3.325-1.451-3.347-4.375 0-2.901 1.563-4.532 3.457-4.532 2.005 0 3.326 1.564 3.326 4.332 0 3.058-1.585 4.575-3.436 4.575zm.044-7.723c-1.209 0-1.85 1.451-1.85 3.283-.044 1.851.641 3.257 1.85 3.259 1.277 0 1.85-1.385 1.85-3.304 0-1.765-.506-3.238-1.85-3.238z"/></svg>