<svg xmlns="http://www.w3.org/2000/svg" width="46" height="32"><path d="M44.088 27.238h-2.814c-.444 2.66-2.737 4.694-5.493 4.694-2.756 0-5.05-2.034-5.494-4.694H14.81c-.444 2.66-2.737 4.694-5.493 4.694-2.756 0-5.05-2.034-5.494-4.694H1.886A1.868 1.868 0 01.03 25.362V1.872C.03.837.863-.004 1.886-.004h25.551c1.024 0 1.857.841 1.857 1.876v1.905h7.12c.082 0 .162.011.237.031 2.305.203 3.457 1.405 4.678 3.463l3.559 6.094a.948.948 0 01.129.477V26.3a.934.934 0 01-.929.938zM9.317 30.055c2.049 0 3.715-1.684 3.715-3.755 0-2.07-1.666-3.755-3.715-3.755S5.601 24.23 5.601 26.3c0 2.071 1.667 3.755 3.716 3.755zm18.12-28.183H1.886v23.49h1.937c.444-2.66 2.738-4.693 5.494-4.693s5.05 2.033 5.493 4.693h12.627V1.872zm8.344 28.183c2.048 0 3.715-1.684 3.715-3.755 0-2.07-1.667-3.755-3.715-3.755-2.049 0-3.716 1.685-3.716 3.755 0 2.071 1.667 3.755 3.716 3.755zm4.056-21.646h-6.898v3.759c0 .528.425.957.947.957.065 0 .128.007.19.02h8.527l-2.766-4.736zm3.323 7.613h-.879a.934.934 0 00-.929.938v.908h1.808v-1.846zm0 3.722h-2.736a.933.933 0 01-.928-.937v-1.848c0-.75.293-1.433.769-1.938h-6.379a.923.923 0 01-.23-.029c-1.439-.118-2.574-1.34-2.574-2.824V7.471c0-.518.416-.938.929-.938h6.483c-.653-.627-1.393-.879-2.578-.879h-6.622v19.708h.993c.443-2.66 2.737-4.693 5.494-4.693 2.756 0 5.049 2.033 5.493 4.693h1.886v-5.618zm-7.379 3.778c.512 0 .928.42.928.938a.934.934 0 01-.928.939.898.898 0 00-.893.901c0 .497.4.902.893.902a.899.899 0 00.892-.902c0-.518.415-.938.928-.938.512 0 .928.42.928.938 0 1.532-1.233 2.778-2.748 2.778-1.516 0-2.75-1.246-2.75-2.778s1.234-2.778 2.75-2.778zM3.782 4.715c0-.518.415-.938.928-.938h19.903c.513 0 .929.42.929.938a.934.934 0 01-.929.939H4.71a.933.933 0 01-.928-.939zm5.535 18.807c.513 0 .928.42.928.938a.934.934 0 01-.928.939.898.898 0 00-.893.901c0 .497.401.902.893.902a.898.898 0 00.892-.902c0-.518.415-.938.928-.938.513 0 .928.42.928.938 0 1.532-1.233 2.778-2.748 2.778-1.516 0-2.749-1.246-2.749-2.778s1.233-2.778 2.749-2.778z"/></svg>