<?xml version="1.0" encoding="UTF-8" standalone="no"?>
<svg
   xmlns:dc="http://purl.org/dc/elements/1.1/"
   xmlns:cc="http://creativecommons.org/ns#"
   xmlns:rdf="http://www.w3.org/1999/02/22-rdf-syntax-ns#"
   xmlns:svg="http://www.w3.org/2000/svg"
   xmlns="http://www.w3.org/2000/svg"
   viewBox="0 0 742.00018 381.00461"
   height="381.00461"
   width="742.00018"
   xml:space="preserve"
   id="svg2"
   version="1.1"><metadata
     id="metadata8"><rdf:RDF><cc:Work
         rdf:about=""><dc:format>image/svg+xml</dc:format><dc:type
           rdf:resource="http://purl.org/dc/dcmitype/StillImage" /></cc:Work></rdf:RDF></metadata><defs
     id="defs6" /><g
     transform="matrix(1.3333333,0,0,-1.3333333,0,381.00399)"
     id="g10"><g
       transform="scale(0.1)"
       id="g12"><path
         id="path14"
         style="fill:#f9c908;fill-opacity:1;fill-rule:nonzero;stroke:none"
         d="M 1393.36,1779.02 41.8125,1899.03 0,1429.1 422.141,1391.65 321.879,262.852 831.48,217.719 931.801,1346.38 l 419.749,-37.35 41.81,469.99" /><path
         id="path16"
         style="fill:#f9c908;fill-opacity:1;fill-rule:nonzero;stroke:none"
         d="m 4198.3,1910.38 -577.38,-54.24 -169.12,-466.6 -255.45,426.69 -575.02,-54.12 632.99,-1017.551 49.81,-530.297 509.29,47.898 -49.64,527.918 434.52,1120.302" /><path
         id="path18"
         style="fill:#f9c908;fill-opacity:1;fill-rule:nonzero;stroke:none"
         d="m 5553.96,842.762 c -67.8,379.018 -343.02,435.038 -765.15,402.728 -69.53,-5.21 -150.91,-0.99 -165.1,78.06 -11.62,65.48 34.66,109.06 86.52,118.26 23.73,4.23 100.81,7.96 131.61,-112.07 l 556.05,99.36 c -90.25,342.47 -366.67,506.57 -742.54,439.41 -390.48,-69.71 -622.04,-348.58 -563.23,-677.99 34.32,-191.93 189.75,-347.918 386.6,-388.231 116.91,-22.898 191.61,-23.469 304.84,-24.367 13.9,-0.113 28.46,-0.211 43.79,-0.391 93.24,0.547 150.04,-29.172 159.71,-83.5 8.25,-45.98 -23.04,-102.203 -82.68,-112.961 -61.89,-11.101 -110.33,30.711 -131.57,112.078 l -579.8,-103.597 c 39.71,-173.352 142.98,-305.473 299.72,-382.672 144.11,-71.02 325.35,-91.859 510.48,-58.859 186.11,33.25 337.07,111.648 436.46,226.679 107.31,124.172 146.76,286.039 114.29,468.063" /><path
         id="path20"
         style="fill:#4fb5ea;fill-opacity:1;fill-rule:nonzero;stroke:none"
         d="m 166.191,2372.68 c 0,49 31.582,93.7 89.321,93.7 59.922,0 87.148,-40.34 87.148,-91.53 v -313.74 h 163.414 v 312.66 c 0,47.91 31.602,92.61 90.449,92.61 58.821,0 86.051,-40.34 86.051,-91.53 v -313.74 h 160.168 v 350.78 c 0,147.08 -98.07,207.01 -200.476,207.01 -72.985,0 -125.262,-23.97 -167.774,-85 -27.226,53.38 -82.769,85 -160.144,85 -58.836,0 -128.559,-30.53 -155.793,-78.47 v 62.11 H 0.59375 V 2061.11 H 166.191 v 311.57" /><path
         id="path22"
         style="fill:#4fb5ea;fill-opacity:1;fill-rule:nonzero;stroke:none"
         d="m 1688.63,2166.74 c -56.65,0 -82.8,35.97 -84.94,73.03 l -140.59,-25.02 c 4.4,-59.93 58.85,-169.96 228.78,-169.96 144.91,0 215.72,90.41 215.72,182.99 0,79.54 -54.47,147.06 -166.68,169.96 l -71.89,14.15 c -24.01,4.34 -42.52,17.47 -42.52,40.28 0,28.38 27.26,46.85 58.84,46.85 50.13,0 72.98,-30.47 77.36,-66.43 l 137.25,25.05 c -5.42,63.2 -59.91,161.26 -216.8,161.26 -120.92,0 -208.05,-80.65 -208.05,-179.78 0,-76.27 45.72,-141.62 161.21,-166.67 l 62.1,-14.16 c 40.33,-8.72 53.4,-25.03 53.4,-44.67 0,-23.95 -20.72,-46.88 -63.19,-46.88" /><path
         id="path24"
         style="fill:#4fb5ea;fill-opacity:1;fill-rule:nonzero;stroke:none"
         d="m 2012.21,2225.61 c 0,-107.87 68.63,-174.32 180.83,-174.32 52.29,0 79.55,11.97 86.08,15.23 v 137.27 c -9.81,-2.13 -26.16,-5.43 -43.56,-5.43 -35.96,0 -59.93,11.97 -59.93,56.64 v 202.64 h 105.68 v 144.9 h -105.68 v 157.93 h -148.15 v -69.67 c 0,-50.11 -27.28,-88.26 -83.92,-88.26 h -27.22 v -144.9 h 95.87 v -232.03" /><path
         id="path26"
         style="fill:#4fb5ea;fill-opacity:1;fill-rule:nonzero;stroke:none"
         d="m 2449.11,2396.63 c 3.25,40.33 38.09,91.51 107.81,91.51 78.45,0 106.77,-50.12 108.99,-91.51 z m 376.9,-55.56 c 0,174.34 -103.51,277.83 -271.25,277.83 -140.56,0 -270.19,-111.1 -270.19,-285.45 0,-181.95 132.93,-288.66 282.16,-288.66 137.24,0 223.33,78.4 249.48,172.1 l -138.36,39.22 c -15.22,-42.49 -49.03,-70.81 -108.96,-70.81 -64.25,0 -119.78,43.56 -123.06,104.59 h 376.88 c 1.16,3.27 3.3,28.32 3.3,51.18" /><path
         id="path28"
         style="fill:#4fb5ea;fill-opacity:1;fill-rule:nonzero;stroke:none"
         d="m 3399.77,2372.68 c 0,49 31.57,93.7 89.28,93.7 59.91,0 87.16,-40.34 87.16,-91.53 v -313.74 h 163.43 v 312.66 c 0,47.91 31.62,92.61 90.42,92.61 58.83,0 86.05,-40.34 86.05,-91.53 v -313.74 h 160.15 v 350.78 c 0,147.08 -98.03,207.01 -200.46,207.01 -72.96,0 -125.23,-23.97 -167.76,-85 -27.21,53.38 -82.78,85 -160.14,85 -58.85,0 -128.56,-30.53 -155.78,-78.47 v 62.11 h -157.96 v -541.43 h 165.61 v 311.57" /><path
         id="path30"
         style="fill:#4fb5ea;fill-opacity:1;fill-rule:nonzero;stroke:none"
         d="m 4117.74,2061.11 h 165.55 v 541.42 h -165.55 v -541.42" /><path
         id="path32"
         style="fill:#4fb5ea;fill-opacity:1;fill-rule:nonzero;stroke:none"
         d="m 4493.55,2371.59 c 0,54.45 34.89,94.79 89.37,94.79 59.92,0 88.23,-40.34 88.23,-93.7 v -311.57 h 165.59 V 2401 c 0,118.73 -61,215.7 -197.22,215.7 -55.52,0 -121.97,-25.05 -151.41,-76.27 v 62.11 h -160.16 v -541.43 h 165.6 v 310.48" /><path
         id="path34"
         style="fill:#4fb5ea;fill-opacity:1;fill-rule:nonzero;stroke:none"
         d="m 4199.26,2632.74 c 63.16,0 113.61,50.52 113.61,112.4 0,61.89 -50.45,112.39 -113.61,112.39 -60.65,0 -111.15,-50.5 -111.15,-112.39 0,-61.88 50.5,-112.4 111.15,-112.4" /><path
         id="path36"
         style="fill:#4fb5ea;fill-opacity:1;fill-rule:nonzero;stroke:none"
         d="m 3017.74,2297.93 c 0,107.96 60,147.23 126.54,147.23 16.34,0 33.79,-1.11 52.34,-5.47 v 163.61 c -10.91,3.29 -27.27,5.45 -43.64,5.45 -43.61,0 -112.35,-17.45 -140.68,-78.54 v 73.09 h -160.32 v -542.04 h 165.76 v 236.67" /><path
         id="path38"
         style="fill:#4fb5ea;fill-opacity:1;fill-rule:nonzero;stroke:none"
         d="m 1155.45,2454.51 c 67.84,0 122.87,-54.99 122.87,-122.87 0,-67.85 -55.03,-122.85 -122.87,-122.85 -67.88,0 -122.87,55 -122.87,122.85 0,67.88 54.99,122.87 122.87,122.87 z m -20.18,-409.53 c 67.59,0 122.08,32.7 146.05,85.02 v -5.45 c 0,-22.89 2.17,-52.32 4.33,-64.31 h 159.17 c -1.1,11.99 -4.36,46.87 -4.36,97.01 v 444.7 h -160.22 v -62.13 c -10.88,25.08 -53.43,78.47 -150.42,78.47 -160.246,0 -263.785,-124.27 -263.785,-285.58 0,-166.73 110.098,-287.73 269.235,-287.73" /><path
         id="path40"
         style="fill:#4fb5ea;fill-opacity:1;fill-rule:nonzero;stroke:none"
         d="m 5162.2,2454.51 c 67.88,0 122.85,-54.99 122.85,-122.87 0,-67.85 -54.97,-122.85 -122.85,-122.85 -67.86,0 -122.87,55 -122.87,122.85 0,67.88 55.01,122.87 122.87,122.87 z m -20.18,-409.53 c 67.6,0 122.07,32.7 146.07,85.02 v -5.45 c 0,-22.89 2.14,-52.32 4.32,-64.31 h 159.15 c -1.09,11.99 -4.35,46.87 -4.35,97.01 v 692.59 h -160.22 v -310.02 c -10.89,25.08 -53.42,78.47 -150.44,78.47 -160.2,0 -263.75,-124.27 -263.75,-285.58 0,-166.73 110.11,-287.73 269.22,-287.73" /><path
         id="path42"
         style="fill:#f9c908;fill-opacity:1;fill-rule:nonzero;stroke:none"
         d="m 2129.15,581.09 c -138.48,0 -250.67,112.23 -250.67,250.648 0,138.473 112.19,250.642 250.67,250.642 138.46,0 250.6,-112.169 250.6,-250.642 0,-138.418 -112.14,-250.648 -250.6,-250.648 z M 1995.19,1641.97 C 1545.2,1572.05 1236.07,1149.04 1306.03,699.039 1376.02,249.031 1799,-60.1602 2249.02,9.89844 2698.99,79.8086 3008.15,502.828 2938.18,952.84 c -69.94,449.96 -492.94,759.12 -942.99,689.13" /><path
         id="path44"
         style="fill:#f9c908;fill-opacity:1;fill-rule:nonzero;stroke:none"
         d="m 5383.71,1824.97 c 0,-9.47 -5.91,-14.43 -17.03,-14.43 h -12.62 v 28.84 h 12.62 c 10.77,0 17.03,-3.64 17.03,-13.95 z m 21.15,0.88 v 0.43 c 0,20.24 -14.9,29.7 -37.72,29.7 h -34.6 v -98.37 h 21.52 v 38.13 h 10.38 l 23.86,-38.13 h 22.36 l -25.99,41.71 c 11.57,3.67 20.19,11.63 20.19,26.53" /><path
         id="path46"
         style="fill:#f9c908;fill-opacity:1;fill-rule:nonzero;stroke:none"
         d="m 5366.68,1722.57 c -45.78,0 -81.83,33.23 -81.83,82.6 0,49 34.19,83.57 81.83,83.57 47.64,0 81.78,-34.13 81.78,-83.06 0,-48.95 -35.45,-83.11 -81.78,-83.11 z m 0,182.33 c -55.77,0 -99.77,-44.46 -99.77,-99.73 0,-56.08 44.52,-98.77 99.77,-98.77 55.7,0 99.72,43.15 99.72,99.28 0,55.24 -43.2,99.22 -99.72,99.22" /></g></g></svg>