<svg xmlns="http://www.w3.org/2000/svg" width="47.03" height="34.91" viewBox="0 0 47.03 34.91">
  <defs>
  </defs>
  <path d="M1208.39,2040.53a4.6,4.6,0,0,0-4.64,4.53,4.438,4.438,0,0,0,1.56,3.37l-5.86,2.06-8.34-9.69a4.526,4.526,0,0,0,3.09-4.25,4.646,4.646,0,0,0-9.29,0,4.543,4.543,0,0,0,3.05,4.24l-8.35,9.7-5.86-2.06a4.472,4.472,0,0,0,1.56-3.37,4.646,4.646,0,1,0-5.75,4.4v12.29a1.027,1.027,0,0,0,.05.24,1.6,1.6,0,0,0-.05.39c0,4.41,17.92,4.54,19.96,4.54s19.97-.13,19.97-4.54a1.6,1.6,0,0,0-.05-0.39,1.027,1.027,0,0,0,.05-0.24v-12.29A4.52,4.52,0,0,0,1208.39,2040.53Zm-21.22-3.98a2.386,2.386,0,1,1,2.39,2.33A2.359,2.359,0,0,1,1187.17,2036.55Zm-7.59,16.27a1.136,1.136,0,0,0,1.25-.33l8.7-10.1,8.69,10.1a1.136,1.136,0,0,0,1.25.33l7.76-2.72v9.94c-4.89-2.13-16.11-2.2-17.71-2.2s-12.82.07-17.7,2.2v-9.94Zm9.95,11.89c-8.71,0-14.25-1.01-16.56-1.86a5.313,5.313,0,0,1-1-.47c0.73-.52,3.06-1.24,6.97-1.73a92.23,92.23,0,0,1,21.18,0c3.9,0.49,6.24,1.21,6.96,1.73a4.879,4.879,0,0,1-.99.47C1203.78,2063.7,1198.24,2064.71,1189.53,2064.71Zm-21.25-19.65a2.386,2.386,0,1,1,2.39,2.33A2.357,2.357,0,0,1,1168.28,2045.06Zm40.11,2.33a2.326,2.326,0,1,1,2.39-2.33A2.356,2.356,0,0,1,1208.39,2047.39Z" transform="translate(-1166 -2032)"/>
</svg>
