<svg
        xmlns="http://www.w3.org/2000/svg"
        xmlns:xlink="http://www.w3.org/1999/xlink"
        width="40px" height="40px">
    <path
          d="M36.576,16.992 L39.987,19.956 L36.576,22.924 L38.784,26.890 L34.575,28.491 L35.307,32.985 L30.813,33.030 L29.992,37.511 L25.753,35.998 L23.465,39.919 L19.994,37.021 L16.523,39.919 L14.234,35.998 L9.994,37.510 L9.174,33.029 L4.680,32.985 L5.412,28.487 L1.203,26.889 L3.413,22.923 L0.002,19.956 L3.413,16.989 L1.203,13.024 L5.413,11.424 L4.680,6.929 L9.174,6.885 L9.996,2.405 L14.235,3.916 L16.524,-0.004 L19.995,2.893 L23.466,-0.004 L25.754,3.917 L29.995,2.405 L30.815,6.886 L35.309,6.931 L34.577,11.425 L38.785,13.025 L36.576,16.992 ZM33.912,13.223 L32.453,12.669 L32.707,11.110 L33.079,8.828 L30.797,8.805 L29.237,8.788 L28.952,7.234 L28.536,4.960 L26.384,5.727 L24.916,6.250 L24.123,4.893 L22.961,2.904 L21.199,4.374 L19.994,5.379 L18.789,4.374 L17.027,2.904 L15.867,4.892 L15.074,6.249 L13.606,5.726 L11.455,4.959 L11.038,7.233 L10.753,8.787 L9.193,8.804 L6.912,8.826 L7.283,11.109 L7.537,12.667 L6.078,13.222 L3.944,14.033 L5.064,16.044 L5.830,17.419 L4.648,18.447 L2.913,19.955 L4.647,21.462 L5.830,22.491 L5.063,23.866 L3.943,25.877 L6.076,26.686 L7.535,27.242 L7.281,28.801 L6.909,31.085 L9.191,31.107 L10.751,31.124 L11.037,32.679 L11.453,34.952 L13.605,34.184 L15.073,33.662 L15.866,35.019 L17.027,37.009 L18.789,35.538 L19.994,34.532 L21.200,35.538 L22.961,37.009 L24.122,35.019 L24.914,33.662 L26.382,34.185 L28.533,34.953 L28.950,32.681 L29.235,31.125 L30.796,31.109 L33.077,31.087 L32.706,28.805 L32.452,27.246 L33.911,26.691 L36.045,25.878 L34.924,23.867 L34.158,22.492 L35.341,21.464 L37.075,19.954 L35.341,18.450 L34.159,17.421 L34.925,16.045 L36.045,14.034 L33.912,13.223 ZM24.665,27.369 C22.883,27.369 21.338,25.919 21.318,23.016 C21.318,20.090 22.883,18.462 24.776,18.462 C26.782,18.462 28.081,20.025 28.080,22.791 C28.080,25.851 26.495,27.369 24.665,27.369 ZM24.711,19.646 C23.500,19.646 22.838,21.097 22.838,22.928 C22.816,24.780 23.521,26.186 24.711,26.186 C25.988,26.186 26.560,24.801 26.560,22.883 C26.560,21.118 26.053,19.646 24.711,19.646 ZM15.195,27.330 L23.609,12.610 L24.842,12.610 L16.427,27.330 L15.195,27.330 ZM15.327,21.362 C13.543,21.362 12.002,19.911 11.980,16.987 C11.980,14.086 13.543,12.455 15.437,12.455 C17.442,12.455 18.763,14.019 18.763,16.787 C18.763,19.845 17.178,21.362 15.327,21.362 ZM15.371,13.639 C14.162,13.639 13.521,15.090 13.521,16.922 C13.477,18.773 14.162,20.179 15.371,20.181 C16.648,20.181 17.221,18.796 17.221,16.877 C17.221,15.112 16.715,13.639 15.371,13.639 Z"/>
</svg>