<svg
        xmlns="http://www.w3.org/2000/svg"
        width="46px" height="32px">
    <path
            d="M44.088,27.238 L41.274,27.238 C40.830,29.898 38.537,31.932 35.781,31.932 C33.025,31.932 30.731,29.898 30.287,27.238 L14.810,27.238 C14.366,29.898 12.073,31.932 9.317,31.932 C6.561,31.932 4.267,29.898 3.823,27.238 L1.886,27.238 C0.863,27.238 0.030,26.397 0.030,25.362 L0.030,1.872 C0.030,0.837 0.863,-0.004 1.886,-0.004 L27.437,-0.004 C28.461,-0.004 29.294,0.837 29.294,1.872 L29.294,3.777 L36.414,3.777 C36.496,3.777 36.576,3.788 36.651,3.808 C38.956,4.011 40.108,5.213 41.329,7.271 L44.888,13.365 C44.972,13.509 45.017,13.674 45.017,13.842 L45.017,26.300 C45.017,26.818 44.601,27.238 44.088,27.238 ZM9.317,30.055 C11.366,30.055 13.032,28.371 13.032,26.300 C13.032,24.230 11.366,22.545 9.317,22.545 C7.268,22.545 5.601,24.230 5.601,26.300 C5.601,28.371 7.268,30.055 9.317,30.055 ZM27.437,1.872 L1.886,1.872 L1.886,25.362 L3.823,25.362 C4.267,22.702 6.561,20.669 9.317,20.669 C12.073,20.669 14.367,22.702 14.810,25.362 L27.437,25.362 L27.437,1.872 ZM35.781,30.055 C37.829,30.055 39.496,28.371 39.496,26.300 C39.496,24.230 37.829,22.545 35.781,22.545 C33.732,22.545 32.065,24.230 32.065,26.300 C32.065,28.371 33.732,30.055 35.781,30.055 ZM39.837,8.409 L32.939,8.409 L32.939,12.168 C32.939,12.696 33.364,13.125 33.886,13.125 C33.951,13.125 34.014,13.132 34.076,13.145 L42.603,13.145 L39.837,8.409 ZM43.160,16.022 L42.281,16.022 C41.769,16.022 41.352,16.442 41.352,16.960 L41.352,17.868 L43.160,17.868 L43.160,16.022 ZM43.160,19.744 L40.424,19.744 C39.912,19.744 39.496,19.324 39.496,18.807 L39.496,16.959 C39.496,16.209 39.789,15.526 40.265,15.021 L33.886,15.021 C33.807,15.021 33.730,15.011 33.656,14.992 C32.217,14.874 31.082,13.652 31.082,12.168 L31.082,7.471 C31.082,6.953 31.498,6.533 32.011,6.533 L38.494,6.533 C37.841,5.906 37.101,5.654 35.916,5.654 L29.294,5.654 L29.294,25.362 L30.287,25.362 C30.730,22.702 33.024,20.669 35.781,20.669 C38.537,20.669 40.830,22.702 41.274,25.362 L43.160,25.362 L43.160,19.744 ZM35.781,23.522 C36.293,23.522 36.709,23.942 36.709,24.460 C36.709,24.978 36.293,25.399 35.781,25.399 C35.288,25.399 34.888,25.803 34.888,26.300 C34.888,26.797 35.288,27.202 35.781,27.202 C36.272,27.202 36.673,26.797 36.673,26.300 C36.673,25.782 37.088,25.362 37.601,25.362 C38.113,25.362 38.529,25.782 38.529,26.300 C38.529,27.832 37.296,29.078 35.781,29.078 C34.265,29.078 33.031,27.832 33.031,26.300 C33.031,24.768 34.265,23.522 35.781,23.522 ZM3.782,4.715 C3.782,4.197 4.197,3.777 4.710,3.777 L24.613,3.777 C25.126,3.777 25.542,4.197 25.542,4.715 C25.542,5.234 25.126,5.654 24.613,5.654 L4.710,5.654 C4.197,5.654 3.782,5.234 3.782,4.715 ZM9.317,23.522 C9.830,23.522 10.245,23.942 10.245,24.460 C10.245,24.978 9.830,25.399 9.317,25.399 C8.825,25.399 8.424,25.803 8.424,26.300 C8.424,26.797 8.825,27.202 9.317,27.202 C9.809,27.202 10.209,26.797 10.209,26.300 C10.209,25.782 10.624,25.362 11.137,25.362 C11.650,25.362 12.065,25.782 12.065,26.300 C12.065,27.832 10.832,29.078 9.317,29.078 C7.801,29.078 6.568,27.832 6.568,26.300 C6.568,24.768 7.801,23.522 9.317,23.522 Z"/>
</svg>